# xmcd
#
# Track frame offsets:
#	150
#	14935
#	31262
#	45475
#	62087
#	81215
#	96777
#	109082
#	125775
#	141147
#	156902
#	171280
#
# Disc length: 2468 seconds
#
# Revision: 1
# Processed by: cddbd v1.4PL0 Copyright (c) Steve Scherf et al.
# Submitted via: EasyCDDAExtractor 5.1.0
#
DISCID=a509a20c
DTITLE=Dobie Toms - Somewhere In The Neighborhood
DYEAR=1900
DGENRE=Country
TTITLE0=Look At Bertha Now
TTITLE1=I Miss me
TTITLE2=Don't Leave Her Lonely Too Long
TTITLE3=My Memory's Coming Back To Me
TTITLE4=Hey Little Girl
TTITLE5=Has She Gone Too Far
TTITLE6=Lady With The Red Dress On
TTITLE7=Somewhere In The Neighborhood
TTITLE8=My Tears Don't Care
TTITLE9=Let Me Be The First To Know
TTITLE10=I Could Not Send You Me
TTITLE11=You Can Say That Again
EXTD=
EXTT0=
EXTT1=
EXTT2=
EXTT3=
EXTT4=
EXTT5=
EXTT6=
EXTT7=
EXTT8=
EXTT9=
EXTT10=
EXTT11=
PLAYORDER=
